<svg xmlns="http://www.w3.org/2000/svg" fill="none" viewBox="0 0 394 80"><path fill="#000000" d="M 227.9 0 h 55.6 v 12.7 h -22.1 v 66.6 h -11 V 12.7 H 227.9 V 0 Z M 136.1 0 v 12.7 H 91.5 v 20.4 h 36 v 12.6 H 91.5 v 21 h 44.7 v 12.6 H 80.5 V 0 h 55.8 z m 27.9 0 h -14.5 l 51.8 79.4 h 14.5 l -26 -39.7 l 26 -39.6 h -14.5 l -18.7 28.6 l -18.7 -28.6 z m 14.9 56.7 l -7.3 -11 l -22 33.7 h 14.5 l 14.9 -22.7 z"/><path fill="#000000" d="M 81 79.3 L 17 0 H 0 v 79.3 h 13.6 V 17 l 50.2 62.3 H 81 Z m 252.6 -0.4 c -1 0 -1.8 -0.4 -2.5 -1 s -1.1 -1.6 -1.1 -2.6 s 0.3 -1.8 1 -2.5 s 1.6 -1 2.6 -1 s 1.8 0.3 2.5 1 a 3.4 3.4 0 0 1 0.6 4.3 a 3.7 3.7 0 0 1 -3 1.8 z m 23.2 -33.5 h 6 v 23.3 c 0 2.1 -0.4 4 -1.3 5.5 a 9.1 9.1 0 0 1 -3.8 3.5 c -1.6 0.8 -3.5 1.3 -5.7 1.3 c -2 0 -3.7 -0.4 -5.3 -1 s -2.8 -1.8 -3.7 -3.2 c -0.9 -1.3 -1.4 -3 -1.4 -5 h 6 c 0.1 0.8 0.3 1.6 0.7 2.2 s 1 1.2 1.6 1.5 c 0.7 0.4 1.5 0.5 2.4 0.5 c 1 0 1.8 -0.2 2.4 -0.6 a 4 4 0 0 0 1.6 -1.8 c 0.3 -0.8 0.5 -1.8 0.5 -3 V 45.5 z m 30.9 9.1 a 4.4 4.4 0 0 0 -2 -3.3 a 7.5 7.5 0 0 0 -4.3 -1.1 c -1.3 0 -2.4 0.2 -3.3 0.5 c -0.9 0.4 -1.6 1 -2 1.6 a 3.5 3.5 0 0 0 -0.3 4 c 0.3 0.5 0.7 0.9 1.3 1.2 l 1.8 1 l 2 0.5 l 3.2 0.8 c 1.3 0.3 2.5 0.7 3.7 1.2 a 13 13 0 0 1 3.2 1.8 a 8.1 8.1 0 0 1 3 6.5 c 0 2 -0.5 3.7 -1.5 5.1 a 10 10 0 0 1 -4.4 3.5 c -1.8 0.8 -4.1 1.2 -6.8 1.2 c -2.6 0 -4.9 -0.4 -6.8 -1.2 c -2 -0.8 -3.4 -2 -4.5 -3.5 a 10 10 0 0 1 -1.7 -5.6 h 6 a 5 5 0 0 0 3.5 4.6 c 1 0.4 2.2 0.6 3.4 0.6 c 1.3 0 2.5 -0.2 3.5 -0.6 c 1 -0.4 1.8 -1 2.4 -1.7 a 4 4 0 0 0 0.8 -2.4 c 0 -0.9 -0.2 -1.6 -0.7 -2.2 a 11 11 0 0 0 -2.1 -1.4 l -3.2 -1 l -3.8 -1 c -2.8 -0.7 -5 -1.7 -6.6 -3.2 a 7.2 7.2 0 0 1 -2.4 -5.7 a 8 8 0 0 1 1.7 -5 a 10 10 0 0 1 4.3 -3.5 c 2 -0.8 4 -1.2 6.4 -1.2 c 2.3 0 4.4 0.4 6.2 1.2 c 1.8 0.8 3.2 2 4.3 3.4 c 1 1.4 1.5 3 1.5 5 h -5.8 z"/></svg>